<svg xmlns="http://www.w3.org/2000/svg" xmlns:xlink="http://www.w3.org/1999/xlink" xmlns:lucid="lucid" width="1160" height="535.25"><g transform="translate(-40 1303.5333333333333)" lucid:page-tab-id="0_0"><path d="M0-1296h1760V64H0z" fill="#fff"/><path d="M320-957.28h220v169H320z" stroke="#000" stroke-width="2" fill="#fff"/><path d="M320-919.68h220" stroke="#000" stroke-width="2" fill="none"/><use xlink:href="#a" transform="matrix(1,0,0,1,328,-949.2814872248312) translate(80.625 14.6)"/><use xlink:href="#b" transform="matrix(1,0,0,1,332,-911.6814872248311) translate(0 17.89999999999999)"/><use xlink:href="#c" transform="matrix(1,0,0,1,332,-911.6814872248311) translate(23.95 17.89999999999999)"/><use xlink:href="#d" transform="matrix(1,0,0,1,332,-911.6814872248311) translate(52.9 17.89999999999999)"/><use xlink:href="#e" transform="matrix(1,0,0,1,332,-911.6814872248311) translate(0 39.49999999999999)"/><use xlink:href="#f" transform="matrix(1,0,0,1,332,-911.6814872248311) translate(54.95 39.49999999999999)"/><use xlink:href="#g" transform="matrix(1,0,0,1,332,-911.6814872248311) translate(0 61.099999999999994)"/><use xlink:href="#c" transform="matrix(1,0,0,1,332,-911.6814872248311) translate(62.9 61.099999999999994)"/><use xlink:href="#h" transform="matrix(1,0,0,1,332,-911.6814872248311) translate(91.85 61.099999999999994)"/><use xlink:href="#i" transform="matrix(1,0,0,1,332,-911.6814872248311) translate(0 82.70000000000002)"/><use xlink:href="#c" transform="matrix(1,0,0,1,332,-911.6814872248311) translate(61.85000000000001 82.70000000000002)"/><use xlink:href="#h" transform="matrix(1,0,0,1,332,-911.6814872248311) translate(90.80000000000001 82.70000000000002)"/><use xlink:href="#j" transform="matrix(1,0,0,1,332,-911.6814872248311) translate(0 104.30000000000001)"/><use xlink:href="#c" transform="matrix(1,0,0,1,332,-911.6814872248311) translate(101.9 104.30000000000001)"/><use xlink:href="#k" transform="matrix(1,0,0,1,332,-911.6814872248311) translate(130.85 104.30000000000001)"/><path d="M660-971.28h280v183H660z" stroke="#000" stroke-width="2" fill="#fff"/><path d="M660-933.68h280" stroke="#000" stroke-width="2" fill="none"/><use xlink:href="#l" transform="matrix(1,0,0,1,668,-963.2814872248312) translate(101.025 14.6)"/><use xlink:href="#b" transform="matrix(1,0,0,1,672,-925.6814872248311) translate(0 14.600000000000003)"/><use xlink:href="#c" transform="matrix(1,0,0,1,672,-925.6814872248311) translate(23.95 14.600000000000003)"/><use xlink:href="#d" transform="matrix(1,0,0,1,672,-925.6814872248311) translate(52.9 14.600000000000003)"/><use xlink:href="#m" transform="matrix(1,0,0,1,672,-925.6814872248311) translate(0 36.2)"/><use xlink:href="#c" transform="matrix(1,0,0,1,672,-925.6814872248311) translate(50.9 36.2)"/><use xlink:href="#h" transform="matrix(1,0,0,1,672,-925.6814872248311) translate(79.85 36.2)"/><use xlink:href="#n" transform="matrix(1,0,0,1,672,-925.6814872248311) translate(0 57.800000000000004)"/><use xlink:href="#c" transform="matrix(1,0,0,1,672,-925.6814872248311) translate(58.900000000000006 57.800000000000004)"/><use xlink:href="#h" transform="matrix(1,0,0,1,672,-925.6814872248311) translate(87.85000000000001 57.800000000000004)"/><use xlink:href="#o" transform="matrix(1,0,0,1,672,-925.6814872248311) translate(0 79.40000000000002)"/><use xlink:href="#f" transform="matrix(1,0,0,1,672,-925.6814872248311) translate(99.80000000000001 79.40000000000002)"/><use xlink:href="#p" transform="matrix(1,0,0,1,672,-925.6814872248311) translate(0 101.00000000000001)"/><use xlink:href="#q" transform="matrix(1,0,0,1,672,-925.6814872248311) translate(59.95 101.00000000000001)"/><use xlink:href="#r" transform="matrix(1,0,0,1,672,-925.6814872248311) translate(0 122.60000000000001)"/><use xlink:href="#s" transform="matrix(1,0,0,1,672,-925.6814872248311) translate(50.9 122.60000000000001)"/><path d="M440-1220h220v162H440z" stroke="#000" stroke-width="2" fill="#fff"/><path d="M440-1182.4h220" stroke="#000" stroke-width="2" fill="none"/><use xlink:href="#t" transform="matrix(1,0,0,1,448,-1212) translate(72.125 14.6)"/><use xlink:href="#b" transform="matrix(1,0,0,1,452,-1174.4) translate(0 14.899999999999993)"/><use xlink:href="#c" transform="matrix(1,0,0,1,452,-1174.4) translate(23.95 14.899999999999993)"/><use xlink:href="#d" transform="matrix(1,0,0,1,452,-1174.4) translate(52.9 14.899999999999993)"/><use xlink:href="#e" transform="matrix(1,0,0,1,452,-1174.4) translate(0 36.49999999999999)"/><use xlink:href="#f" transform="matrix(1,0,0,1,452,-1174.4) translate(54.95 36.49999999999999)"/><use xlink:href="#u" transform="matrix(1,0,0,1,452,-1174.4) translate(0 58.099999999999994)"/><use xlink:href="#c" transform="matrix(1,0,0,1,452,-1174.4) translate(71.9 58.099999999999994)"/><use xlink:href="#h" transform="matrix(1,0,0,1,452,-1174.4) translate(100.85000000000001 58.099999999999994)"/><use xlink:href="#v" transform="matrix(1,0,0,1,452,-1174.4) translate(0 79.70000000000002)"/><use xlink:href="#w" transform="matrix(1,0,0,1,452,-1174.4) translate(0 101.30000000000001)"/><path d="M1000-931.78h180v118h-180z" stroke="#000" stroke-width="2" fill="#fff"/><path d="M1000-894.18h180" stroke="#000" stroke-width="2" fill="none"/><use xlink:href="#x" transform="matrix(1,0,0,1,1008,-923.7814872248312) translate(55.724999999999994 14.6)"/><use xlink:href="#b" transform="matrix(1,0,0,1,1012,-886.1814872248311) translate(0 14.500000000000002)"/><use xlink:href="#c" transform="matrix(1,0,0,1,1012,-886.1814872248311) translate(23.95 14.500000000000002)"/><use xlink:href="#d" transform="matrix(1,0,0,1,1012,-886.1814872248311) translate(52.9 14.500000000000002)"/><use xlink:href="#e" transform="matrix(1,0,0,1,1012,-886.1814872248311) translate(0 36.1)"/><use xlink:href="#f" transform="matrix(1,0,0,1,1012,-886.1814872248311) translate(54.95 36.1)"/><use xlink:href="#y" transform="matrix(1,0,0,1,1012,-886.1814872248311) translate(0 57.7)"/><use xlink:href="#z" transform="matrix(1,0,0,1,1012,-886.1814872248311) translate(57.85000000000001 57.7)"/><path d="M180-1209h180v140H180z" stroke="#000" stroke-width="2" fill="#fff"/><path d="M180-1171.4h180" stroke="#000" stroke-width="2" fill="none"/><use xlink:href="#A" transform="matrix(1,0,0,1,188,-1201) translate(30.64999999999999 14.6)"/><use xlink:href="#b" transform="matrix(1,0,0,1,192,-1163.4) translate(0 14.69999999999999)"/><use xlink:href="#c" transform="matrix(1,0,0,1,192,-1163.4) translate(23.95 14.69999999999999)"/><use xlink:href="#d" transform="matrix(1,0,0,1,192,-1163.4) translate(52.9 14.69999999999999)"/><use xlink:href="#i" transform="matrix(1,0,0,1,192,-1163.4) translate(0 36.29999999999999)"/><use xlink:href="#c" transform="matrix(1,0,0,1,192,-1163.4) translate(61.85000000000001 36.29999999999999)"/><use xlink:href="#h" transform="matrix(1,0,0,1,192,-1163.4) translate(90.80000000000001 36.29999999999999)"/><use xlink:href="#e" transform="matrix(1,0,0,1,192,-1163.4) translate(0 57.89999999999999)"/><use xlink:href="#f" transform="matrix(1,0,0,1,192,-1163.4) translate(54.95 57.89999999999999)"/><use xlink:href="#w" transform="matrix(1,0,0,1,192,-1163.4) translate(0 79.5)"/><path d="M1000-1204h180v130h-180z" stroke="#000" stroke-width="2" fill="#fff"/><path d="M1000-1166.4h180" stroke="#000" stroke-width="2" fill="none"/><g><use xlink:href="#B" transform="matrix(1,0,0,1,1008,-1196) translate(49.099999999999994 14.6)"/></g><g><use xlink:href="#b" transform="matrix(1,0,0,1,1012,-1158.4) translate(0 20.5)"/><use xlink:href="#c" transform="matrix(1,0,0,1,1012,-1158.4) translate(23.95 20.5)"/><use xlink:href="#d" transform="matrix(1,0,0,1,1012,-1158.4) translate(52.9 20.5)"/><use xlink:href="#C" transform="matrix(1,0,0,1,1012,-1158.4) translate(0 42.1)"/><use xlink:href="#D" transform="matrix(1,0,0,1,1012,-1158.4) translate(49 42.1)"/><use xlink:href="#e" transform="matrix(1,0,0,1,1012,-1158.4) translate(0 63.7)"/><use xlink:href="#z" transform="matrix(1,0,0,1,1012,-1158.4) translate(54.95 63.7)"/></g><path d="M658-879.78h-97" stroke="#000" stroke-width="2" fill="none"/><path d="M659-878.78h-1.03v-2H659z"/><path d="M561-869.78v-20M541-879.78h20" stroke="#000" stroke-width="2" fill="#fff"/><path d="M942-879.78h28v-.46h28" stroke="#000" stroke-width="2" fill="none"/><path d="M942.03-878.78H941v-2h1.03zM999-879.24h-1.03v-2H999z"/><path d="M60-949h180v97H60z" stroke="#000" stroke-width="2" fill="#fff"/><path d="M60-911.4h180" stroke="#000" stroke-width="2" fill="none"/><g><use xlink:href="#E" transform="matrix(1,0,0,1,68,-941) translate(53.025 14.6)"/></g><g><use xlink:href="#b" transform="matrix(1,0,0,1,72,-903.4) translate(0 14.799999999999999)"/><use xlink:href="#c" transform="matrix(1,0,0,1,72,-903.4) translate(23.95 14.799999999999999)"/><use xlink:href="#d" transform="matrix(1,0,0,1,72,-903.4) translate(52.9 14.799999999999999)"/><use xlink:href="#e" transform="matrix(1,0,0,1,72,-903.4) translate(0 36.4)"/><use xlink:href="#z" transform="matrix(1,0,0,1,72,-903.4) translate(54.95 36.4)"/></g><path d="M259.82-900.5H318" stroke="#000" stroke-width="2" fill="none"/><path d="M241.45-910.5l20 10-20 10M241.45-900.5h20" stroke="#000" stroke-width="2" fill="#fff"/><path d="M319-899.5h-1.03v-2H319z"/><path d="M720-1209h200v140H720z" stroke="#000" stroke-width="2" fill="#fff"/><path d="M720-1171.4h200" stroke="#000" stroke-width="2" fill="none"/><g><use xlink:href="#F" transform="matrix(1,0,0,1,728,-1201) translate(57.599999999999994 14.6)"/></g><g><use xlink:href="#b" transform="matrix(1,0,0,1,732,-1163.4) translate(0 14.69999999999999)"/><use xlink:href="#c" transform="matrix(1,0,0,1,732,-1163.4) translate(23.95 14.69999999999999)"/><use xlink:href="#d" transform="matrix(1,0,0,1,732,-1163.4) translate(52.9 14.69999999999999)"/><use xlink:href="#G" transform="matrix(1,0,0,1,732,-1163.4) translate(0 36.29999999999999)"/><use xlink:href="#f" transform="matrix(1,0,0,1,732,-1163.4) translate(44 36.29999999999999)"/><use xlink:href="#H" transform="matrix(1,0,0,1,732,-1163.4) translate(0 57.89999999999999)"/><use xlink:href="#c" transform="matrix(1,0,0,1,732,-1163.4) translate(68.95 57.89999999999999)"/><use xlink:href="#h" transform="matrix(1,0,0,1,732,-1163.4) translate(97.9 57.89999999999999)"/><use xlink:href="#I" transform="matrix(1,0,0,1,732,-1163.4) translate(0 79.5)"/><use xlink:href="#c" transform="matrix(1,0,0,1,732,-1163.4) translate(60.95 79.5)"/><use xlink:href="#k" transform="matrix(1,0,0,1,732,-1163.4) translate(89.9 79.5)"/></g><path d="M662-1139h37" stroke="#000" stroke-width="2" fill="none"/><path d="M662.03-1138H661v-2h1.03z"/><path d="M699-1149v20M719-1139h-20" stroke="#000" stroke-width="2" fill="#fff"/><path d="M979-1139h-57" stroke="#000" stroke-width="2" fill="none"/><path d="M979-1149v20M999-1139h-20" stroke="#000" stroke-width="2" fill="#fff"/><path d="M922.03-1138H921v-2h1.03z"/><path d="M438-1139h-38" stroke="#000" stroke-width="2" fill="none"/><path d="M439-1138h-1.03v-2H439z"/><path d="M361.45-1149l20 10-20 10M361.45-1139h20M401.45-1139c0 5.52-4.48 10-10 10-5.53 0-10-4.48-10-10s4.47-10 10-10c5.52 0 10 4.48 10 10" stroke="#000" stroke-width="2" fill="#fff"/><path d="M497.33-959.28V-1037" stroke="#000" stroke-width="2" fill="none"/><path d="M498.33-958.28h-2v-1.03h2z"/><path d="M487.33-1037h20M497.33-1057v20" stroke="#000" stroke-width="2" fill="#fff"/><path d="M342.67-959.28V-1029" stroke="#000" stroke-width="2" fill="none"/><path d="M343.67-958.28h-2v-1.03h2z"/><path d="M352.67-1067.55l-10 20-10-20M342.67-1067.55v20M352.67-1037.55c0 5.52-4.48 10-10 10-5.53 0-10-4.48-10-10 0-5.53 4.47-10 10-10 5.52 0 10 4.47 10 10" stroke="#000" stroke-width="2" fill="#fff"/><path d="M480-1283.53h380v74.53H480z" stroke="#000" stroke-opacity="0" stroke-width="2" fill="#fff" fill-opacity="0"/><g><use xlink:href="#J" transform="matrix(1,0,0,1,485,-1278.5333333333333) translate(34.45956790123461 37.761111111111106)"/><use xlink:href="#K" transform="matrix(1,0,0,1,485,-1278.5333333333333) translate(105.78981481481485 37.761111111111106)"/><use xlink:href="#L" transform="matrix(1,0,0,1,485,-1278.5333333333333) translate(232.54104938271604 37.761111111111106)"/></g><defs><path d="M275 0h-61l-44-196L126 0H64L0-248h53L97-49l45-199h58l43 199 44-199h52" id="M"/><path d="M25-224v-37h50v37H25zM25 0v-190h50V0H25" id="N"/><path d="M135-194c87-1 58 113 63 194h-50c-7-57 23-157-34-157-59 0-34 97-39 157H25l-1-190h47c2 12-1 28 3 38 12-26 28-41 61-42" id="O"/><path d="M185-48c-13 30-37 53-82 52C43 2 14-33 14-96s30-98 90-98c62 0 83 45 84 108H66c0 31 8 55 39 56 18 0 30-7 34-22zm-45-69c5-46-57-63-70-21-2 6-4 13-4 21h74" id="P"/><g id="a"><use transform="matrix(0.05,0,0,0.05,0,0)" xlink:href="#M"/><use transform="matrix(0.05,0,0,0.05,16.8,0)" xlink:href="#N"/><use transform="matrix(0.05,0,0,0.05,21.8,0)" xlink:href="#O"/><use transform="matrix(0.05,0,0,0.05,32.75,0)" xlink:href="#P"/></g><path d="M24-231v-30h32v30H24zM24 0v-190h32V0H24" id="Q"/><path d="M85-194c31 0 48 13 60 33l-1-100h32l1 261h-30c-2-10 0-23-3-31C134-8 116 4 85 4 32 4 16-35 15-94c0-66 23-100 70-100zm9 24c-40 0-46 34-46 75 0 40 6 74 45 74 42 0 51-32 51-76 0-42-9-74-50-73" id="R"/><path d="M33-154v-36h34v36H33zM33 0v-36h34V0H33" id="S"/><g id="b"><use transform="matrix(0.05,0,0,0.05,0,0)" xlink:href="#Q"/><use transform="matrix(0.05,0,0,0.05,3.95,0)" xlink:href="#R"/><use transform="matrix(0.05,0,0,0.05,13.949999999999998,0)" xlink:href="#S"/></g><path d="M117-194c89-4 53 116 60 194h-32v-121c0-31-8-49-39-48C34-167 62-67 57 0H25l-1-190h30c1 10-1 24 2 32 11-22 29-35 61-36" id="T"/><path d="M59-47c-2 24 18 29 38 22v24C64 9 27 4 27-40v-127H5v-23h24l9-43h21v43h35v23H59v120" id="U"/><path d="M68-38c1 34 0 65-14 84H32c9-13 17-26 17-46H33v-38h35" id="V"/><g id="c"><use transform="matrix(0.05,0,0,0.05,0,0)" xlink:href="#Q"/><use transform="matrix(0.05,0,0,0.05,3.95,0)" xlink:href="#T"/><use transform="matrix(0.05,0,0,0.05,13.949999999999998,0)" xlink:href="#U"/><use transform="matrix(0.05,0,0,0.05,18.95,0)" xlink:href="#V"/></g><path d="M30-248c87 1 191-15 191 75 0 78-77 80-158 76V0H30v-248zm33 125c57 0 124 11 124-50 0-59-68-47-124-48v98" id="W"/><path d="M194 0L95-120 63-95V0H30v-248h33v124l119-124h40L117-140 236 0h-42" id="X"/><g id="d"><use transform="matrix(0.05,0,0,0.05,0,0)" xlink:href="#W"/><use transform="matrix(0.05,0,0,0.05,12,0)" xlink:href="#X"/></g><path d="M141-36C126-15 110 5 73 4 37 3 15-17 15-53c-1-64 63-63 125-63 3-35-9-54-41-54-24 1-41 7-42 31l-33-3c5-37 33-52 76-52 45 0 72 20 72 64v82c-1 20 7 32 28 27v20c-31 9-61-2-59-35zM48-53c0 20 12 33 32 33 41-3 63-29 60-74-43 2-92-5-92 41" id="Y"/><path d="M210-169c-67 3-38 105-44 169h-31v-121c0-29-5-50-35-48C34-165 62-65 56 0H25l-1-190h30c1 10-1 24 2 32 10-44 99-50 107 0 11-21 27-35 58-36 85-2 47 119 55 194h-31v-121c0-29-5-49-35-48" id="Z"/><path d="M100-194c63 0 86 42 84 106H49c0 40 14 67 53 68 26 1 43-12 49-29l28 8c-11 28-37 45-77 45C44 4 14-33 15-96c1-61 26-98 85-98zm52 81c6-60-76-77-97-28-3 7-6 17-6 28h103" id="aa"/><g id="e"><use transform="matrix(0.05,0,0,0.05,0,0)" xlink:href="#T"/><use transform="matrix(0.05,0,0,0.05,10,0)" xlink:href="#Y"/><use transform="matrix(0.05,0,0,0.05,20,0)" xlink:href="#Z"/><use transform="matrix(0.05,0,0,0.05,34.95,0)" xlink:href="#aa"/><use transform="matrix(0.05,0,0,0.05,44.95,0)" xlink:href="#S"/></g><path d="M108 0H70L1-190h34L89-25l56-165h34" id="ab"/><path d="M114-163C36-179 61-72 57 0H25l-1-190h30c1 12-1 29 2 39 6-27 23-49 58-41v29" id="ac"/><path d="M96-169c-40 0-48 33-48 73s9 75 48 75c24 0 41-14 43-38l32 2c-6 37-31 61-74 61-59 0-76-41-82-99-10-93 101-131 147-64 4 7 5 14 7 22l-32 3c-4-21-16-35-41-35" id="ad"/><path d="M106-169C34-169 62-67 57 0H25v-261h32l-1 103c12-21 28-36 61-36 89 0 53 116 60 194h-32v-121c2-32-8-49-39-48" id="ae"/><path d="M87 75C49 33 22-17 22-94c0-76 28-126 65-167h31c-38 41-64 92-64 168S80 34 118 75H87" id="af"/><path d="M33-261c38 41 65 92 65 168S71 34 33 75H2C39 34 66-17 66-93S39-220 2-261h31" id="ag"/><g id="f"><use transform="matrix(0.05,0,0,0.05,0,0)" xlink:href="#ab"/><use transform="matrix(0.05,0,0,0.05,9,0)" xlink:href="#Y"/><use transform="matrix(0.05,0,0,0.05,19,0)" xlink:href="#ac"/><use transform="matrix(0.05,0,0,0.05,24.95,0)" xlink:href="#ad"/><use transform="matrix(0.05,0,0,0.05,33.95,0)" xlink:href="#ae"/><use transform="matrix(0.05,0,0,0.05,43.95,0)" xlink:href="#Y"/><use transform="matrix(0.05,0,0,0.05,53.95,0)" xlink:href="#ac"/><use transform="matrix(0.05,0,0,0.05,59.900000000000006,0)" xlink:href="#af"/><use transform="matrix(0.05,0,0,0.05,65.85000000000001,0)" xlink:href="#T"/><use transform="matrix(0.05,0,0,0.05,75.85000000000001,0)" xlink:href="#ag"/></g><path d="M179-190L93 31C79 59 56 82 12 73V49c39 6 53-20 64-50L1-190h34L92-34l54-156h33" id="ah"/><g id="g"><use transform="matrix(0.05,0,0,0.05,0,0)" xlink:href="#ab"/><use transform="matrix(0.05,0,0,0.05,9,0)" xlink:href="#Y"/><use transform="matrix(0.05,0,0,0.05,19,0)" xlink:href="#ac"/><use transform="matrix(0.05,0,0,0.05,24.95,0)" xlink:href="#Q"/><use transform="matrix(0.05,0,0,0.05,28.899999999999995,0)" xlink:href="#aa"/><use transform="matrix(0.05,0,0,0.05,38.9,0)" xlink:href="#U"/><use transform="matrix(0.05,0,0,0.05,43.9,0)" xlink:href="#ah"/><use transform="matrix(0.05,0,0,0.05,52.900000000000006,0)" xlink:href="#S"/></g><path d="M63-220v92h138v28H63V0H30v-248h175v28H63" id="ai"/><g id="h"><use transform="matrix(0.05,0,0,0.05,0,0)" xlink:href="#ai"/><use transform="matrix(0.05,0,0,0.05,10.950000000000001,0)" xlink:href="#X"/></g><path d="M206 0h-36l-40-164L89 0H53L-1-190h32L70-26l43-164h34l41 164 42-164h31" id="aj"/><g id="i"><use transform="matrix(0.05,0,0,0.05,0,0)" xlink:href="#aj"/><use transform="matrix(0.05,0,0,0.05,12.950000000000001,0)" xlink:href="#Q"/><use transform="matrix(0.05,0,0,0.05,16.900000000000002,0)" xlink:href="#T"/><use transform="matrix(0.05,0,0,0.05,26.900000000000002,0)" xlink:href="#aa"/><use transform="matrix(0.05,0,0,0.05,36.900000000000006,0)" xlink:href="#ac"/><use transform="matrix(0.05,0,0,0.05,42.85000000000001,0)" xlink:href="#ah"/><use transform="matrix(0.05,0,0,0.05,51.85,0)" xlink:href="#S"/></g><path d="M135-143c-3-34-86-38-87 0 15 53 115 12 119 90S17 21 10-45l28-5c4 36 97 45 98 0-10-56-113-15-118-90-4-57 82-63 122-42 12 7 21 19 24 35" id="ak"/><path d="M177-190C167-65 218 103 67 71c-23-6-38-20-44-43l32-5c15 47 100 32 89-28v-30C133-14 115 1 83 1 29 1 15-40 15-95c0-56 16-97 71-98 29-1 48 16 59 35 1-10 0-23 2-32h30zM94-22c36 0 50-32 50-73 0-42-14-75-50-75-39 0-46 34-46 75s6 73 46 73" id="al"/><path d="M100-194c62-1 85 37 85 99 1 63-27 99-86 99S16-35 15-95c0-66 28-99 85-99zM99-20c44 1 53-31 53-75 0-43-8-75-51-75s-53 32-53 75 10 74 51 75" id="am"/><g id="j"><use transform="matrix(0.05,0,0,0.05,0,0)" xlink:href="#R"/><use transform="matrix(0.05,0,0,0.05,10,0)" xlink:href="#aa"/><use transform="matrix(0.05,0,0,0.05,20,0)" xlink:href="#ak"/><use transform="matrix(0.05,0,0,0.05,29,0)" xlink:href="#Q"/><use transform="matrix(0.05,0,0,0.05,32.95,0)" xlink:href="#al"/><use transform="matrix(0.05,0,0,0.05,42.95,0)" xlink:href="#T"/><use transform="matrix(0.05,0,0,0.05,52.95,0)" xlink:href="#Y"/><use transform="matrix(0.05,0,0,0.05,62.95,0)" xlink:href="#U"/><use transform="matrix(0.05,0,0,0.05,67.95,0)" xlink:href="#Q"/><use transform="matrix(0.05,0,0,0.05,71.9,0)" xlink:href="#am"/><use transform="matrix(0.05,0,0,0.05,81.9,0)" xlink:href="#T"/><use transform="matrix(0.05,0,0,0.05,91.9,0)" xlink:href="#S"/></g><g id="k"><use transform="matrix(0.05,0,0,0.05,0,0)" xlink:href="#ai"/><use transform="matrix(0.05,0,0,0.05,10.950000000000001,0)" xlink:href="#X"/></g><path d="M240-174c0 40-23 61-54 70L253 0h-59l-57-94H76V0H24v-248c93 4 217-23 216 74zM76-134c48-2 112 12 112-38 0-48-66-32-112-35v73" id="an"/><path d="M128 0H69L1-190h53L99-40l48-150h52" id="ao"/><path d="M231 0h-52l-39-155L100 0H48L-1-190h46L77-45c9-52 24-97 36-145h53l37 145 32-145h46" id="ap"/><g id="l"><use transform="matrix(0.05,0,0,0.05,0,0)" xlink:href="#an"/><use transform="matrix(0.05,0,0,0.05,12.950000000000001,0)" xlink:href="#P"/><use transform="matrix(0.05,0,0,0.05,22.950000000000003,0)" xlink:href="#ao"/><use transform="matrix(0.05,0,0,0.05,32.95,0)" xlink:href="#N"/><use transform="matrix(0.05,0,0,0.05,37.95,0)" xlink:href="#P"/><use transform="matrix(0.05,0,0,0.05,47.95,0)" xlink:href="#ap"/></g><path d="M266 0h-40l-56-210L115 0H75L2-248h35L96-30l15-64 43-154h32l59 218 59-218h35" id="aq"/><g id="m"><use transform="matrix(0.05,0,0,0.05,0,0)" xlink:href="#aq"/><use transform="matrix(0.05,0,0,0.05,16.95,0)" xlink:href="#Q"/><use transform="matrix(0.05,0,0,0.05,20.9,0)" xlink:href="#T"/><use transform="matrix(0.05,0,0,0.05,30.899999999999995,0)" xlink:href="#aa"/><use transform="matrix(0.05,0,0,0.05,40.9,0)" xlink:href="#S"/></g><path d="M127-220V0H93v-220H8v-28h204v28h-85" id="ar"/><g id="n"><use transform="matrix(0.05,0,0,0.05,0,0)" xlink:href="#ar"/><use transform="matrix(0.05,0,0,0.05,8.950000000000001,0)" xlink:href="#Y"/><use transform="matrix(0.05,0,0,0.05,18.950000000000003,0)" xlink:href="#ak"/><use transform="matrix(0.05,0,0,0.05,27.950000000000003,0)" xlink:href="#U"/><use transform="matrix(0.05,0,0,0.05,32.95,0)" xlink:href="#aa"/><use transform="matrix(0.05,0,0,0.05,42.95,0)" xlink:href="#ac"/><use transform="matrix(0.05,0,0,0.05,48.900000000000006,0)" xlink:href="#S"/></g><path d="M30-248c118-7 216 8 213 122C240-48 200 0 122 0H30v-248zM63-27c89 8 146-16 146-99s-60-101-146-95v194" id="as"/><path d="M115-194c55 1 70 41 70 98S169 2 115 4C84 4 66-9 55-30l1 105H24l-1-265h31l2 30c10-21 28-34 59-34zm-8 174c40 0 45-34 45-75s-6-73-45-74c-42 0-51 32-51 76 0 43 10 73 51 73" id="at"/><g id="o"><use transform="matrix(0.05,0,0,0.05,0,0)" xlink:href="#as"/><use transform="matrix(0.05,0,0,0.05,12.950000000000001,0)" xlink:href="#aa"/><use transform="matrix(0.05,0,0,0.05,22.950000000000003,0)" xlink:href="#ak"/><use transform="matrix(0.05,0,0,0.05,31.950000000000003,0)" xlink:href="#ad"/><use transform="matrix(0.05,0,0,0.05,40.95,0)" xlink:href="#ac"/><use transform="matrix(0.05,0,0,0.05,46.900000000000006,0)" xlink:href="#Q"/><use transform="matrix(0.05,0,0,0.05,50.85000000000001,0)" xlink:href="#at"/><use transform="matrix(0.05,0,0,0.05,60.85,0)" xlink:href="#U"/><use transform="matrix(0.05,0,0,0.05,65.85000000000001,0)" xlink:href="#Q"/><use transform="matrix(0.05,0,0,0.05,69.80000000000001,0)" xlink:href="#am"/><use transform="matrix(0.05,0,0,0.05,79.80000000000001,0)" xlink:href="#T"/><use transform="matrix(0.05,0,0,0.05,89.80000000000001,0)" xlink:href="#S"/></g><g id="p"><use transform="matrix(0.05,0,0,0.05,0,0)" xlink:href="#W"/><use transform="matrix(0.05,0,0,0.05,12,0)" xlink:href="#am"/><use transform="matrix(0.05,0,0,0.05,22,0)" xlink:href="#Q"/><use transform="matrix(0.05,0,0,0.05,25.950000000000003,0)" xlink:href="#T"/><use transform="matrix(0.05,0,0,0.05,35.95,0)" xlink:href="#U"/><use transform="matrix(0.05,0,0,0.05,40.95,0)" xlink:href="#ak"/><use transform="matrix(0.05,0,0,0.05,49.95,0)" xlink:href="#S"/></g><path d="M24 0v-261h32V0H24" id="au"/><g id="q"><use transform="matrix(0.05,0,0,0.05,0,0)" xlink:href="#ak"/><use transform="matrix(0.05,0,0,0.05,9,0)" xlink:href="#Z"/><use transform="matrix(0.05,0,0,0.05,23.950000000000003,0)" xlink:href="#Y"/><use transform="matrix(0.05,0,0,0.05,33.95,0)" xlink:href="#au"/><use transform="matrix(0.05,0,0,0.05,37.900000000000006,0)" xlink:href="#au"/></g><g id="r"><use transform="matrix(0.05,0,0,0.05,0,0)" xlink:href="#W"/><use transform="matrix(0.05,0,0,0.05,12,0)" xlink:href="#ac"/><use transform="matrix(0.05,0,0,0.05,17.95,0)" xlink:href="#Q"/><use transform="matrix(0.05,0,0,0.05,21.9,0)" xlink:href="#ad"/><use transform="matrix(0.05,0,0,0.05,30.899999999999995,0)" xlink:href="#aa"/><use transform="matrix(0.05,0,0,0.05,40.9,0)" xlink:href="#S"/></g><path d="M101-234c-31-9-42 10-38 44h38v23H63V0H32v-167H5v-23h27c-7-52 17-82 69-68v24" id="av"/><g id="s"><use transform="matrix(0.05,0,0,0.05,0,0)" xlink:href="#av"/><use transform="matrix(0.05,0,0,0.05,5,0)" xlink:href="#au"/><use transform="matrix(0.05,0,0,0.05,8.95,0)" xlink:href="#am"/><use transform="matrix(0.05,0,0,0.05,18.95,0)" xlink:href="#Y"/><use transform="matrix(0.05,0,0,0.05,28.950000000000003,0)" xlink:href="#U"/></g><path d="M135-150c-39-12-60 13-60 57V0H25l-1-190h47c2 13-1 29 3 40 6-28 27-53 61-41v41" id="aw"/><path d="M123 10C108 53 80 86 19 72V37c35 8 53-11 59-39L3-190h52l48 148c12-52 28-100 44-148h51" id="ax"/><g id="t"><use transform="matrix(0.05,0,0,0.05,0,0)" xlink:href="#M"/><use transform="matrix(0.05,0,0,0.05,16.8,0)" xlink:href="#N"/><use transform="matrix(0.05,0,0,0.05,21.8,0)" xlink:href="#O"/><use transform="matrix(0.05,0,0,0.05,32.75,0)" xlink:href="#P"/><use transform="matrix(0.05,0,0,0.05,42.75,0)" xlink:href="#aw"/><use transform="matrix(0.05,0,0,0.05,49.75,0)" xlink:href="#ax"/></g><g id="u"><use transform="matrix(0.05,0,0,0.05,0,0)" xlink:href="#au"/><use transform="matrix(0.05,0,0,0.05,3.95,0)" xlink:href="#am"/><use transform="matrix(0.05,0,0,0.05,13.949999999999998,0)" xlink:href="#ad"/><use transform="matrix(0.05,0,0,0.05,22.95,0)" xlink:href="#Y"/><use transform="matrix(0.05,0,0,0.05,32.95,0)" xlink:href="#U"/><use transform="matrix(0.05,0,0,0.05,37.95,0)" xlink:href="#Q"/><use transform="matrix(0.05,0,0,0.05,41.900000000000006,0)" xlink:href="#am"/><use transform="matrix(0.05,0,0,0.05,51.900000000000006,0)" xlink:href="#T"/><use transform="matrix(0.05,0,0,0.05,61.900000000000006,0)" xlink:href="#S"/></g><path d="M136-208V0H84v-208H4v-40h212v40h-80" id="ay"/><path d="M133-34C117-15 103 5 69 4 32 3 11-16 11-54c-1-60 55-63 116-61 1-26-3-47-28-47-18 1-26 9-28 27l-52-2c7-38 36-58 82-57s74 22 75 68l1 82c-1 14 12 18 25 15v27c-30 8-71 5-69-32zm-48 3c29 0 43-24 42-57-32 0-66-3-65 30 0 17 8 27 23 27" id="az"/><path d="M137-138c1-29-70-34-71-4 15 46 118 7 119 86 1 83-164 76-172 9l43-7c4 19 20 25 44 25 33 8 57-30 24-41C81-84 22-81 20-136c-2-80 154-74 161-7" id="aA"/><path d="M115-3C79 11 28 4 28-45v-112H4v-33h27l15-45h31v45h36v33H77v99c-1 23 16 31 38 25v30" id="aB"/><g id="x"><use transform="matrix(0.05,0,0,0.05,0,0)" xlink:href="#ay"/><use transform="matrix(0.05,0,0,0.05,9.600000000000001,0)" xlink:href="#az"/><use transform="matrix(0.05,0,0,0.05,19.6,0)" xlink:href="#aA"/><use transform="matrix(0.05,0,0,0.05,29.6,0)" xlink:href="#aB"/><use transform="matrix(0.05,0,0,0.05,35.550000000000004,0)" xlink:href="#P"/><use transform="matrix(0.05,0,0,0.05,45.550000000000004,0)" xlink:href="#aw"/></g><g id="y"><use transform="matrix(0.05,0,0,0.05,0,0)" xlink:href="#U"/><use transform="matrix(0.05,0,0,0.05,5,0)" xlink:href="#aj"/><use transform="matrix(0.05,0,0,0.05,17.950000000000003,0)" xlink:href="#Q"/><use transform="matrix(0.05,0,0,0.05,21.900000000000002,0)" xlink:href="#U"/><use transform="matrix(0.05,0,0,0.05,26.900000000000002,0)" xlink:href="#U"/><use transform="matrix(0.05,0,0,0.05,31.900000000000002,0)" xlink:href="#aa"/><use transform="matrix(0.05,0,0,0.05,41.900000000000006,0)" xlink:href="#ac"/><use transform="matrix(0.05,0,0,0.05,47.85000000000001,0)" xlink:href="#S"/></g><g id="z"><use transform="matrix(0.05,0,0,0.05,0,0)" xlink:href="#ab"/><use transform="matrix(0.05,0,0,0.05,9,0)" xlink:href="#Y"/><use transform="matrix(0.05,0,0,0.05,19,0)" xlink:href="#ac"/><use transform="matrix(0.05,0,0,0.05,24.95,0)" xlink:href="#ad"/><use transform="matrix(0.05,0,0,0.05,33.95,0)" xlink:href="#ae"/><use transform="matrix(0.05,0,0,0.05,43.95,0)" xlink:href="#Y"/><use transform="matrix(0.05,0,0,0.05,53.95,0)" xlink:href="#ac"/><use transform="matrix(0.05,0,0,0.05,59.900000000000006,0)" xlink:href="#af"/><use transform="matrix(0.05,0,0,0.05,65.85000000000001,0)" xlink:href="#T"/><use transform="matrix(0.05,0,0,0.05,75.85000000000001,0)" xlink:href="#ag"/></g><path d="M24-248c120-7 223 5 221 122C244-46 201 0 124 0H24v-248zM76-40c74 7 117-18 117-86 0-67-45-88-117-82v168" id="aC"/><path d="M195-6C206 82 75 100 31 46c-4-6-6-13-8-21l49-6c3 16 16 24 34 25 40 0 42-37 40-79-11 22-30 35-61 35-53 0-70-43-70-97 0-56 18-96 73-97 30 0 46 14 59 34l2-30h47zm-90-29c32 0 41-27 41-63 0-35-9-62-40-62-32 0-39 29-40 63 0 36 9 62 39 62" id="aD"/><path d="M110-194c64 0 96 36 96 99 0 64-35 99-97 99-61 0-95-36-95-99 0-62 34-99 96-99zm-1 164c35 0 45-28 45-65 0-40-10-65-43-65-34 0-45 26-45 65 0 36 10 65 43 65" id="aE"/><g id="A"><use transform="matrix(0.05,0,0,0.05,0,0)" xlink:href="#aC"/><use transform="matrix(0.05,0,0,0.05,12.950000000000001,0)" xlink:href="#P"/><use transform="matrix(0.05,0,0,0.05,22.950000000000003,0)" xlink:href="#aA"/><use transform="matrix(0.05,0,0,0.05,32.95,0)" xlink:href="#N"/><use transform="matrix(0.05,0,0,0.05,37.95,0)" xlink:href="#aD"/><use transform="matrix(0.05,0,0,0.05,48.900000000000006,0)" xlink:href="#O"/><use transform="matrix(0.05,0,0,0.05,59.85,0)" xlink:href="#az"/><use transform="matrix(0.05,0,0,0.05,69.85000000000001,0)" xlink:href="#aB"/><use transform="matrix(0.05,0,0,0.05,75.80000000000001,0)" xlink:href="#N"/><use transform="matrix(0.05,0,0,0.05,80.80000000000001,0)" xlink:href="#aE"/><use transform="matrix(0.05,0,0,0.05,91.75000000000001,0)" xlink:href="#O"/></g><path d="M190-63c-7 42-38 67-86 67-59 0-84-38-90-98-12-110 154-137 174-36l-49 2c-2-19-15-32-35-32-30 0-35 28-38 64-6 74 65 87 74 30" id="aF"/><path d="M85 4C-2 5 27-109 22-190h50c7 57-23 150 33 157 60-5 35-97 40-157h50l1 190h-47c-2-12 1-28-3-38-12 25-28 42-61 42" id="aG"/><g id="B"><use transform="matrix(0.05,0,0,0.05,0,0)" xlink:href="#aF"/><use transform="matrix(0.05,0,0,0.05,10,0)" xlink:href="#aE"/><use transform="matrix(0.05,0,0,0.05,20.950000000000003,0)" xlink:href="#aG"/><use transform="matrix(0.05,0,0,0.05,31.900000000000006,0)" xlink:href="#O"/><use transform="matrix(0.05,0,0,0.05,42.85000000000001,0)" xlink:href="#aB"/><use transform="matrix(0.05,0,0,0.05,48.80000000000001,0)" xlink:href="#aw"/><use transform="matrix(0.05,0,0,0.05,55.80000000000001,0)" xlink:href="#ax"/></g><g id="C"><use transform="matrix(0.05,0,0,0.05,0,0)" xlink:href="#ad"/><use transform="matrix(0.05,0,0,0.05,9,0)" xlink:href="#am"/><use transform="matrix(0.05,0,0,0.05,19,0)" xlink:href="#R"/><use transform="matrix(0.05,0,0,0.05,29,0)" xlink:href="#aa"/><use transform="matrix(0.05,0,0,0.05,39,0)" xlink:href="#S"/></g><g id="D"><use transform="matrix(0.05,0,0,0.05,0,0)" xlink:href="#Q"/><use transform="matrix(0.05,0,0,0.05,3.95,0)" xlink:href="#T"/><use transform="matrix(0.05,0,0,0.05,13.949999999999998,0)" xlink:href="#U"/></g><g id="E"><use transform="matrix(0.05,0,0,0.05,0,0)" xlink:href="#ao"/><use transform="matrix(0.05,0,0,0.05,10,0)" xlink:href="#az"/><use transform="matrix(0.05,0,0,0.05,20,0)" xlink:href="#aw"/><use transform="matrix(0.05,0,0,0.05,27,0)" xlink:href="#N"/><use transform="matrix(0.05,0,0,0.05,32,0)" xlink:href="#P"/><use transform="matrix(0.05,0,0,0.05,42,0)" xlink:href="#aB"/><use transform="matrix(0.05,0,0,0.05,47.95,0)" xlink:href="#ax"/></g><path d="M25 0v-261h50V0H25" id="aH"/><g id="F"><use transform="matrix(0.05,0,0,0.05,0,0)" xlink:href="#aH"/><use transform="matrix(0.05,0,0,0.05,5,0)" xlink:href="#aE"/><use transform="matrix(0.05,0,0,0.05,15.950000000000001,0)" xlink:href="#aF"/><use transform="matrix(0.05,0,0,0.05,25.950000000000003,0)" xlink:href="#az"/><use transform="matrix(0.05,0,0,0.05,35.95,0)" xlink:href="#aB"/><use transform="matrix(0.05,0,0,0.05,41.900000000000006,0)" xlink:href="#N"/><use transform="matrix(0.05,0,0,0.05,46.900000000000006,0)" xlink:href="#aE"/><use transform="matrix(0.05,0,0,0.05,57.85,0)" xlink:href="#O"/></g><g id="G"><use transform="matrix(0.05,0,0,0.05,0,0)" xlink:href="#U"/><use transform="matrix(0.05,0,0,0.05,5,0)" xlink:href="#ah"/><use transform="matrix(0.05,0,0,0.05,14,0)" xlink:href="#at"/><use transform="matrix(0.05,0,0,0.05,24,0)" xlink:href="#aa"/><use transform="matrix(0.05,0,0,0.05,34,0)" xlink:href="#S"/></g><path d="M84 4C-5 8 30-112 23-190h32v120c0 31 7 50 39 49 72-2 45-101 50-169h31l1 190h-30c-1-10 1-25-2-33-11 22-28 36-60 37" id="aI"/><g id="H"><use transform="matrix(0.05,0,0,0.05,0,0)" xlink:href="#ad"/><use transform="matrix(0.05,0,0,0.05,9,0)" xlink:href="#am"/><use transform="matrix(0.05,0,0,0.05,19,0)" xlink:href="#aI"/><use transform="matrix(0.05,0,0,0.05,29,0)" xlink:href="#T"/><use transform="matrix(0.05,0,0,0.05,39,0)" xlink:href="#U"/><use transform="matrix(0.05,0,0,0.05,44,0)" xlink:href="#ac"/><use transform="matrix(0.05,0,0,0.05,49.95,0)" xlink:href="#ah"/><use transform="matrix(0.05,0,0,0.05,58.95,0)" xlink:href="#S"/></g><g id="I"><use transform="matrix(0.05,0,0,0.05,0,0)" xlink:href="#at"/><use transform="matrix(0.05,0,0,0.05,10,0)" xlink:href="#Y"/><use transform="matrix(0.05,0,0,0.05,20,0)" xlink:href="#ac"/><use transform="matrix(0.05,0,0,0.05,25.950000000000003,0)" xlink:href="#aa"/><use transform="matrix(0.05,0,0,0.05,35.95,0)" xlink:href="#T"/><use transform="matrix(0.05,0,0,0.05,45.95,0)" xlink:href="#U"/><use transform="matrix(0.05,0,0,0.05,50.95,0)" xlink:href="#S"/></g><g id="J"><use transform="matrix(0.07469135802469135,0,0,0.07469135802469135,0,0)" xlink:href="#M"/><use transform="matrix(0.07469135802469135,0,0,0.07469135802469135,25.09629629629629,0)" xlink:href="#N"/><use transform="matrix(0.07469135802469135,0,0,0.07469135802469135,32.56543209876543,0)" xlink:href="#O"/><use transform="matrix(0.07469135802469135,0,0,0.07469135802469135,48.92283950617283,0)" xlink:href="#P"/></g><path d="M135-194c52 0 70 43 70 98 0 56-19 99-73 100-30 1-46-15-58-35L72 0H24l1-261h50v104c11-23 29-37 60-37zM114-30c31 0 40-27 40-66 0-37-7-63-39-63s-41 28-41 65c0 36 8 64 40 64" id="aJ"/><g id="K"><use transform="matrix(0.07469135802469135,0,0,0.07469135802469135,0,0)" xlink:href="#aC"/><use transform="matrix(0.07469135802469135,0,0,0.07469135802469135,19.34506172839506,0)" xlink:href="#az"/><use transform="matrix(0.07469135802469135,0,0,0.07469135802469135,34.28333333333333,0)" xlink:href="#aB"/><use transform="matrix(0.07469135802469135,0,0,0.07469135802469135,43.1716049382716,0)" xlink:href="#az"/><use transform="matrix(0.07469135802469135,0,0,0.07469135802469135,58.109876543209865,0)" xlink:href="#aJ"/><use transform="matrix(0.07469135802469135,0,0,0.07469135802469135,74.46728395061727,0)" xlink:href="#az"/><use transform="matrix(0.07469135802469135,0,0,0.07469135802469135,89.40555555555554,0)" xlink:href="#aA"/><use transform="matrix(0.07469135802469135,0,0,0.07469135802469135,104.34382716049382,0)" xlink:href="#P"/></g><path d="M169-182c-1-43-94-46-97-3 18 66 151 10 154 114 3 95-165 93-204 36-6-8-10-19-12-30l50-8c3 46 112 56 116 5-17-69-150-10-154-114-4-87 153-88 188-35 5 8 8 18 10 28" id="aK"/><path d="M114-157C55-157 80-60 75 0H25v-261h50l-1 109c12-26 28-41 61-42 86-1 58 113 63 194h-50c-7-57 23-157-34-157" id="aL"/><path d="M220-157c-53 9-28 100-34 157h-49v-107c1-27-5-49-29-50C55-147 81-57 75 0H25l-1-190h47c2 12-1 28 3 38 10-53 101-56 108 0 13-22 24-43 59-42 82 1 51 116 57 194h-49v-107c-1-25-5-48-29-50" id="aM"/><g id="L"><use transform="matrix(0.07469135802469135,0,0,0.07469135802469135,0,0)" xlink:href="#aK"/><use transform="matrix(0.07469135802469135,0,0,0.07469135802469135,17.925925925925924,0)" xlink:href="#aF"/><use transform="matrix(0.07469135802469135,0,0,0.07469135802469135,32.86419753086419,0)" xlink:href="#aL"/><use transform="matrix(0.07469135802469135,0,0,0.07469135802469135,49.2216049382716,0)" xlink:href="#P"/><use transform="matrix(0.07469135802469135,0,0,0.07469135802469135,64.15987654320986,0)" xlink:href="#aM"/><use transform="matrix(0.07469135802469135,0,0,0.07469135802469135,88.0611111111111,0)" xlink:href="#az"/></g></defs></g></svg>